HIERARCHY
ROOT Hips
{
	OFFSET 0.000000 0.000000 0.000000
	CHANNELS 6 Xposition Yposition Zposition Zrotation Yrotation Xrotation 
	JOINT LowerBack
	{
		OFFSET 0.000000 0.000000 0.000000
		CHANNELS 3 Zrotation Yrotation Xrotation
		JOINT Spine
		{
			OFFSET 0.028270 2.035590 -0.193380
			CHANNELS 3 Zrotation Yrotation Xrotation
			JOINT Spine1
			{
				OFFSET 0.056720 2.048850 -0.042750
				CHANNELS 3 Zrotation Yrotation Xrotation
				JOINT Neck
				{
					OFFSET 0.000000 0.000000 0.000000
					CHANNELS 3 Zrotation Yrotation Xrotation
					JOINT Neck1
					{
						OFFSET -0.054170 1.746240 0.172020
						CHANNELS 3 Zrotation Yrotation Xrotation
						JOINT Head
						{
							OFFSET 0.104070 1.761360 -0.123970
							CHANNELS 3 Zrotation Yrotation Xrotation
							End Site
							{
								OFFSET 0.000000 0.000000 0.000000
							}
						}
					}
				}
				JOINT LeftShoulder
				{
					OFFSET 0.000000 0.000000 0.000000
					CHANNELS 3 Zrotation Yrotation Xrotation
					JOINT LeftArm
					{
						OFFSET 3.362410 1.200890 -0.311210
						CHANNELS 3 Zrotation Yrotation Xrotation
						JOINT LeftForeArm
						{
							OFFSET 4.983000 -0.000000 -0.000000
							CHANNELS 3 Zrotation Yrotation Xrotation
							JOINT LeftHand
							{
								OFFSET 3.483560 -0.000000 -0.000000
								CHANNELS 3 Zrotation Yrotation Xrotation
								JOINT LeftFingerBase
								{
									OFFSET 0.000000 0.000000 0.000000
									CHANNELS 3 Zrotation Yrotation Xrotation
									JOINT LeftHandIndex1
									{
										OFFSET 0.715260 -0.000000 -0.000000
										CHANNELS 3 Zrotation Yrotation Xrotation
										End Site
										{
											OFFSET 0.000000 0.000000 0.000000
										}
									}
								}
								JOINT LThumb
								{
									OFFSET 0.000000 0.000000 0.000000
									CHANNELS 3 Zrotation Yrotation Xrotation
									End Site
									{
										OFFSET 0.000000 0.000000 0.000000
									}
								}
							}
						}
					}
				}
				JOINT RightShoulder
				{
					OFFSET 0.000000 0.000000 0.000000
					CHANNELS 3 Zrotation Yrotation Xrotation
					JOINT RightArm
					{
						OFFSET -3.136600 1.374050 -0.404650
						CHANNELS 3 Zrotation Yrotation Xrotation
						JOINT RightForeArm
						{
							OFFSET -5.241900 -0.000000 -0.000000
							CHANNELS 3 Zrotation Yrotation Xrotation
							JOINT RightHand
							{
								OFFSET -3.444170 -0.000000 -0.000000
								CHANNELS 3 Zrotation Yrotation Xrotation
								JOINT RightFingerBase
								{
									OFFSET 0.000000 0.000000 0.000000
									CHANNELS 3 Zrotation Yrotation Xrotation
									JOINT RightHandIndex1
									{
										OFFSET -0.622530 -0.000000 -0.000000
										CHANNELS 3 Zrotation Yrotation Xrotation
										End Site
										{
											OFFSET 0.000000 0.000000 0.000000
										}
									}
								}
								JOINT RThumb
								{
									OFFSET 0.000000 0.000000 0.000000
									CHANNELS 3 Zrotation Yrotation Xrotation
									End Site
									{
										OFFSET 0.000000 0.000000 0.000000
									}
								}
							}
						}
					}
				}
			}
		}
	}
}
}
MOTION
Frames: 17
Frame Time: 0.008333
11.893897 16.320489 0.593184 7.769222 -87.665145 -20.361157 -3.875112 -3.306429 -0.242581 -1.321348 -3.122426 -2.263513 -5.388615 -3.071677 2.289399 12.149746 -22.890846 -11.718021 -1.499098 -0.053795 -1.075715 0.000000 0.000000 0.000000 3.207201 22.020032 0.833071 -63.398003 14.903164 -13.572557 -4.241321 -28.254372 -0.031237 -5.796202 11.642902 -0.578737 -0.141495 -0.030270 -0.000000 0.000000 0.000000 0.000000 0.000000 0.000000 0.000000 15.851171 -18.457348 -0.911293 72.158673 -11.526040 -18.657762 2.699037 38.405787 0.007458 -1.653396 5.058312 -0.079122 0.110261 -0.132643 0.000000 0.000000 0.000000 0.000000 0.000000 0.000000 0.000000 
11.828643 16.328837 0.583505 8.197092 -87.599700 -20.373672 -3.807272 -3.215735 -0.072289 -1.303809 -3.032044 -2.239916 -5.373117 -2.982429 2.291612 12.026404 -22.718580 -11.731441 -1.453277 -0.049477 -1.077742 0.000000 0.000000 0.000000 3.341241 21.867633 0.887827 -63.237686 15.283470 -12.753328 -4.245574 -28.271239 -0.032147 -5.570292 11.670274 -0.556740 -0.144684 -0.033521 -0.000000 0.000000 0.000000 0.000000 0.000000 0.000000 0.000000 15.414907 -18.256271 -0.865325 71.717524 -10.735033 -17.313406 2.674500 38.897812 0.007792 -1.409233 5.057134 -0.068015 0.107840 -0.133797 0.000000 0.000000 0.000000 0.000000 0.000000 0.000000 0.000000 
11.761210 16.336894 0.574800 8.721536 -87.536599 -20.463746 -3.753069 -3.111989 0.071277 -1.290108 -2.927836 -2.221317 -5.356358 -2.879613 2.292862 11.888031 -22.541568 -11.728231 -1.410383 -0.045759 -1.075281 0.000000 0.000000 0.000000 3.469711 21.726313 0.936713 -63.081890 15.694939 -11.967468 -4.246809 -28.375185 -0.033035 -5.380720 11.707962 -0.538943 -0.147514 -0.037051 -0.000000 0.000000 0.000000 0.000000 0.000000 0.000000 0.000000 14.976832 -18.039662 -0.822067 71.218289 -9.949339 -15.873897 2.652502 39.428011 0.008222 -1.075711 5.017678 -0.052309 0.104778 -0.134621 0.000000 0.000000 0.000000 0.000000 0.000000 0.000000 0.000000 
11.691396 16.344950 0.566783 9.422174 -87.488157 -20.715731 -3.715648 -2.996055 0.189928 -1.280711 -2.810491 -2.206114 -5.337670 -2.763781 2.297566 11.741657 -22.373997 -11.713542 -1.368959 -0.042415 -1.069776 0.000000 0.000000 0.000000 3.593887 21.620709 0.978723 -62.930596 16.120988 -11.208588 -4.246646 -28.544243 -0.033918 -5.238159 11.756722 -0.526347 -0.149958 -0.040902 -0.000000 0.000000 0.000000 0.000000 0.000000 0.000000 0.000000 14.547214 -17.825392 -0.782581 70.638133 -9.141533 -14.296069 2.631719 39.959455 0.008692 -0.716224 4.963336 -0.035604 0.101582 -0.135131 0.000000 0.000000 0.000000 0.000000 0.000000 0.000000 0.000000 
11.618490 16.353748 0.559518 10.357441 -87.471810 -21.174880 -3.688011 -2.866899 0.263813 -1.275172 -2.679682 -2.199172 -5.321581 -2.634835 2.302136 11.589128 -22.181604 -11.682446 -1.334742 -0.040080 -1.059706 0.000000 0.000000 0.000000 3.704124 21.543693 1.014443 -62.774643 16.589151 -10.481622 -4.246555 -28.777808 -0.034818 -5.154807 11.816563 -0.520352 -0.152018 -0.045158 -0.000000 0.000000 0.000000 0.000000 0.000000 0.000000 0.000000 14.140064 -17.573778 -0.746103 69.984857 -8.350318 -12.688271 2.612860 40.513868 0.009230 -0.300664 4.885608 -0.016700 0.097960 -0.135325 0.000000 0.000000 0.000000 0.000000 0.000000 0.000000 0.000000 
11.543061 16.363219 0.552789 11.596375 -87.490626 -21.927609 -3.675694 -2.727872 0.312321 -1.273787 -2.538246 -2.195070 -5.305253 -2.495273 2.312658 11.436843 -21.990913 -11.644935 -1.303626 -0.038172 -1.048010 0.000000 0.000000 0.000000 3.800114 21.524733 1.044168 -62.618038 17.058895 -9.791732 -4.248195 -29.035491 -0.035749 -5.130377 11.889579 -0.521059 -0.153708 -0.049724 -0.000000 0.000000 0.000000 0.000000 0.000000 0.000000 0.000000 13.758414 -17.318956 -0.713886 69.241665 -7.523435 -10.977441 2.593305 41.044956 0.009751 0.084156 4.820862 0.000405 0.094598 -0.135340 -0.000000 0.000000 0.000000 0.000000 0.000000 0.000000 0.000000 
11.464774 16.373838 0.546816 13.182197 -87.551062 -23.009555 -3.671664 -2.580332 0.325511 -1.275524 -2.388126 -2.196866 -5.291396 -2.347226 2.325315 11.283255 -21.769433 -11.597413 -1.279829 -0.037143 -1.033618 0.000000 0.000000 0.000000 3.871389 21.553887 1.069941 -62.455151 17.546390 -9.153231 -4.253143 -29.304613 -0.036734 -5.167814 11.975905 -0.528867 -0.155077 -0.054565 -0.000000 0.000000 0.000000 0.000000 0.000000 0.000000 0.000000 13.406294 -17.025184 -0.685356 68.425790 -6.697587 -9.262318 2.572762 41.579019 0.010274 0.463657 4.762937 0.016707 0.091216 -0.135239 -0.000000 0.000000 0.000000 0.000000 0.000000 0.000000 0.000000 
11.384097 16.385517 0.541575 15.172903 -87.650365 -24.490684 -3.675561 -2.427510 0.315514 -1.279710 -2.232459 -2.202012 -5.278456 -2.193714 2.340942 11.128324 -21.519105 -11.543800 -1.261981 -0.036775 -1.017744 0.000000 0.000000 0.000000 3.914452 21.637049 1.093439 -62.289628 18.033339 -8.580587 -4.262864 -29.554314 -0.037788 -5.262674 12.076472 -0.543579 -0.156184 -0.059548 -0.000000 0.000000 0.000000 0.000000 0.000000 0.000000 0.000000 13.079873 -16.697786 -0.660730 67.543368 -5.860924 -7.545123 2.549371 42.106395 0.010760 0.807430 4.723720 0.031310 0.088007 -0.135135 -0.000000 0.000000 0.000000 0.000000 0.000000 0.000000 0.000000 
11.301003 16.398217 0.537242 17.629895 -87.783332 -26.434399 -3.684479 -2.272427 0.286126 -1.285199 -2.074404 -2.210203 -5.265440 -2.037968 2.358326 10.968765 -21.229032 -11.484147 -1.249932 -0.037043 -1.000447 0.000000 0.000000 0.000000 3.925635 21.769615 1.116711 -62.124217 18.515551 -8.086504 -4.278635 -29.761878 -0.038923 -5.408243 12.191305 -0.564592 -0.157115 -0.064549 -0.000000 0.000000 0.000000 0.000000 0.000000 0.000000 0.000000 12.770921 -16.327372 -0.639869 66.609397 -5.024675 -5.860661 2.521970 42.632471 0.011197 1.111847 4.704137 0.044212 0.084940 -0.135100 -0.000000 0.000000 0.000000 0.000000 0.000000 0.000000 0.000000 
11.216089 16.411447 0.533733 20.624878 -87.940433 -28.930342 -3.699221 -2.117920 0.258824 -1.290994 -1.916438 -2.216501 -5.248707 -1.882233 2.380359 10.804627 -20.925801 -11.425581 -1.239311 -0.037395 -0.983882 0.000000 0.000000 0.000000 3.907583 21.953527 1.140483 -61.969818 18.966948 -7.685515 -4.301548 -29.895516 -0.040138 -5.594604 12.318572 -0.590908 -0.157954 -0.069403 -0.000000 0.000000 0.000000 0.000000 0.000000 0.000000 0.000000 12.470483 -15.946559 -0.622036 65.630370 -4.151475 -4.178437 2.489236 43.138748 0.011540 1.347749 4.707223 0.054313 0.082257 -0.135202 -0.000000 0.000000 0.000000 0.000000 0.000000 0.000000 0.000000 
11.129034 16.425024 0.531285 24.225742 -88.111959 -32.040004 -3.715504 -1.966364 0.224284 -1.295759 -1.761295 -2.224194 -5.228234 -1.729612 2.401697 10.628707 -20.579972 -11.361928 -1.231876 -0.038108 -0.966277 0.000000 0.000000 0.000000 3.860214 22.167475 1.166793 -61.828089 19.407285 -7.381532 -4.331716 -29.952796 -0.041432 -5.810752 12.456365 -0.621526 -0.158796 -0.074016 -0.000000 0.000000 0.000000 0.000000 0.000000 0.000000 0.000000 12.165882 -15.523900 -0.606740 64.629897 -3.290212 -2.571986 2.450932 43.649962 0.011810 1.547680 4.717397 0.063012 0.079600 -0.135419 -0.000000 0.000000 0.000000 0.000000 0.000000 0.000000 0.000000 
11.039858 16.438395 0.529879 28.516014 -88.285457 -35.852379 -3.734329 -1.819761 0.189014 -1.298586 -1.610771 -2.232010 -5.201427 -1.581966 2.422292 10.438828 -20.203499 -11.294912 -1.224923 -0.038899 -0.948143 0.000000 0.000000 0.000000 3.789480 22.401154 1.195917 -61.707148 19.833941 -7.176434 -4.368906 -29.923903 -0.042790 -6.042371 12.601193 -0.654745 -0.159723 -0.078287 -0.000000 0.000000 0.000000 0.000000 0.000000 0.000000 0.000000 11.846128 -15.074520 -0.592993 63.618438 -2.435010 -1.038264 2.406877 44.160797 0.011993 1.711135 4.726879 0.070209 0.076964 -0.135731 -0.000000 0.000000 0.000000 0.000000 0.000000 0.000000 0.000000 
10.948412 16.451035 0.529546 33.582579 -88.449356 -40.454574 -3.757037 -1.679336 0.153804 -1.298913 -1.465951 -2.240201 -5.167167 -1.440528 2.440513 10.233347 -19.797348 -11.224074 -1.217392 -0.039683 -0.929334 0.000000 0.000000 0.000000 3.703098 22.639982 1.228196 -61.613310 20.253450 -7.065991 -4.412325 -29.808671 -0.044181 -6.274635 12.747729 -0.688666 -0.160802 -0.082144 -0.000000 0.000000 0.000000 0.000000 0.000000 0.000000 0.000000 11.503456 -14.600247 -0.579622 62.607585 -1.598016 0.401876 2.357470 44.676816 0.012096 1.855641 4.721229 0.076403 0.074175 -0.136076 -0.000000 0.000000 0.000000 0.000000 0.000000 0.000000 0.000000 
10.854357 16.462465 0.530276 39.543170 -88.589799 -45.958460 -3.789421 -1.546467 0.109789 -1.297142 -1.327975 -2.250972 -5.124683 -1.306719 2.454401 10.011174 -19.358619 -11.147423 -1.208701 -0.040452 -0.909186 0.000000 0.000000 0.000000 3.609622 22.870999 1.263446 -61.548688 20.680109 -7.034754 -4.460391 -29.617386 -0.045569 -6.490492 12.890596 -0.721086 -0.162076 -0.085571 -0.000000 0.000000 0.000000 0.000000 0.000000 0.000000 0.000000 11.131675 -14.098319 -0.565938 61.607036 -0.799931 1.726833 2.303556 45.203617 0.012141 2.003875 4.691103 0.082293 0.071007 -0.136398 -0.000000 0.000000 0.000000 0.000000 0.000000 0.000000 0.000000 
10.757551 16.472035 0.532137 46.456750 -88.701729 -52.422948 -3.833773 -1.420612 0.061584 -1.292487 -1.196004 -2.262310 -5.070665 -1.179655 2.468002 9.775440 -18.931151 -11.072321 -1.194197 -0.040673 -0.889635 0.000000 0.000000 0.000000 3.512778 23.090501 1.299366 -61.521715 21.112150 -7.081758 -4.511848 -29.356948 -0.046931 -6.680051 13.027988 -0.750707 -0.163550 -0.088577 -0.000000 0.000000 0.000000 0.000000 0.000000 0.000000 0.000000 10.727957 -13.617720 -0.549378 60.607175 0.014700 3.006944 2.246145 45.704756 0.012097 2.121378 4.643482 0.086481 0.067902 -0.136718 -0.000000 0.000000 0.000000 0.000000 0.000000 0.000000 0.000000 
10.657568 16.479528 0.535008 54.500589 -88.767870 -60.013271 -3.903590 -1.301878 -0.007952 -1.288237 -1.069779 -2.278930 -5.008429 -1.059389 2.476213 9.527791 -18.479334 -10.992541 -1.177662 -0.040804 -0.868812 0.000000 0.000000 0.000000 3.424089 23.287173 1.336850 -61.527869 21.572785 -7.180111 -4.564689 -29.047593 -0.048224 -6.827439 13.153060 -0.775127 -0.165244 -0.091212 -0.000000 0.000000 0.000000 0.000000 0.000000 0.000000 0.000000 10.297032 -13.117155 -0.530190 59.622798 0.777703 4.159724 2.186405 46.216156 0.012034 2.266221 4.563030 0.091167 0.064234 -0.136970 -0.000000 0.000000 0.000000 0.000000 0.000000 0.000000 0.000000 
10.554303 16.484564 0.538900 63.746964 -88.777186 -68.797883 -4.009143 -1.188296 -0.102053 -1.286623 -0.946889 -2.300972 -4.937839 -0.943467 2.481124 9.273457 -18.021112 -10.912488 -1.157797 -0.040660 -0.847811 0.000000 0.000000 0.000000 3.347083 23.464345 1.374429 -61.568841 22.063809 -7.320604 -4.617574 -28.701771 -0.049430 -6.926042 13.264354 -0.793247 -0.167139 -0.093541 -0.000000 0.000000 0.000000 0.000000 0.000000 0.000000 0.000000 9.844789 -12.614817 -0.507045 58.647788 1.511485 5.213237 2.125409 46.721381 0.011956 2.424792 4.458975 0.095648 0.060189 -0.137226 -0.000000 0.000000 0.000000 0.000000 0.000000 0.000000 0.000000 
